<svg width="57" height="79" viewBox="0 0 57 79" fill="none" xmlns="http://www.w3.org/2000/svg">
<path d="M28.2705 3C14.3191 3 3 13.7733 3 27.0421C3 42.3096 19.847 66.5044 26.033 74.8612C26.2898 75.214 26.6263 75.501 27.0152 75.6989C27.404 75.8968 27.8342 76 28.2705 76C28.7068 76 29.1369 75.8968 29.5258 75.6989C29.9147 75.501 30.2512 75.214 30.508 74.8612C36.694 66.5079 53.541 42.3219 53.541 27.0421C53.541 13.7733 42.2219 3 28.2705 3Z" stroke="#FAFAFA" stroke-width="6" stroke-linecap="round" stroke-linejoin="round"/>
<path d="M28.2704 36.694C32.9226 36.694 36.6939 32.9227 36.6939 28.2705C36.6939 23.6184 32.9226 19.847 28.2704 19.847C23.6183 19.847 19.8469 23.6184 19.8469 28.2705C19.8469 32.9227 23.6183 36.694 28.2704 36.694Z" stroke="#FAFAFA" stroke-width="6" stroke-linecap="round" stroke-linejoin="round"/>
</svg>
